<?xml version="1.0" encoding="utf-8"?>
<!-- Generator: Adobe Illustrator 16.0.0, SVG Export Plug-In . SVG Version: 6.00 Build 0)  -->
<!DOCTYPE svg PUBLIC "-//W3C//DTD SVG 1.1//EN" "http://www.w3.org/Graphics/SVG/1.1/DTD/svg11.dtd">
<svg version="1.1" id="Capa_1" xmlns="http://www.w3.org/2000/svg" xmlns:xlink="http://www.w3.org/1999/xlink" x="0px" y="0px"
	 width="50px" height="9px" viewBox="0 0 50 9" enable-background="new 0 0 50 9" xml:space="preserve">
<g id="Capa_2">
</g>
<g id="Capa_1_1_">
	<g>
		<g>
			<path d="M40.818,6.909c-0.865-0.896-1.729-1.79-2.588-2.689c-0.994-1.038-1.981-2.083-2.978-3.12
				c-0.366-0.382-0.894-0.404-1.271-0.028c-1.015,1.008-1.971,2.076-2.978,3.093c-0.438,0.443-0.858,0.912-1.29,1.368
				c-0.181,0.191-0.357,0.191-0.54,0.003c-0.6-0.624-1.202-1.243-1.802-1.868c-0.872-0.914-1.753-1.819-2.606-2.754
				c-0.304-0.335-0.615-0.49-1.064-0.471c-0.367,0.014-0.547,0.27-0.742,0.483c-0.54,0.592-1.118,1.146-1.654,1.743
				c-0.696,0.775-1.442,1.5-2.164,2.25c-0.249,0.259-0.484,0.531-0.731,0.791c-0.109,0.116-0.22,0.173-0.364,0.021
				c-0.452-0.487-0.915-0.966-1.374-1.446c-1.181-1.234-2.359-2.473-3.546-3.698c-0.149-0.154-0.392-0.322-0.568-0.258
				c-0.25,0.09-0.532,0.143-0.739,0.384C11.18,1.46,10.47,2.138,9.805,2.863C9.356,3.35,8.886,3.827,8.433,4.315
				c-0.48,0.519-0.98,1.019-1.452,1.548C6.78,6.09,6.572,6.064,6.375,5.84C5.953,5.357,5.51,4.896,5.072,4.43
				C4.621,3.948,4.151,3.479,3.699,2.999C2.99,2.248,2.285,1.494,1.561,0.762c-0.168-0.17-0.387-0.311-0.66-0.294
				C0.649,0.45,0.452,0.604,0.292,0.776c-0.198,0.213-0.354,0.481-0.269,0.8c0.074,0.28,0.227,0.521,0.429,0.725
				C0.636,2.488,0.821,2.672,1,2.864c0.486,0.527,0.944,1.085,1.46,1.578C2.938,4.9,3.381,5.396,3.838,5.872
				c0.649,0.676,1.289,1.364,1.931,2.051c0.294,0.312,0.57,0.599,1.057,0.515C7.022,8.402,7.189,8.383,7.33,8.229
				c0.496-0.533,0.991-1.067,1.495-1.594c1.166-1.216,2.336-2.428,3.503-3.642c0.21-0.218,0.327-0.224,0.54-0.002
				c0.571,0.59,1.139,1.184,1.705,1.777c1.005,1.05,2.028,2.083,3.006,3.162c0.437,0.479,1.049,0.313,1.374-0.021
				c1.011-1.043,2.012-2.097,2.995-3.168c0.499-0.544,1.018-1.067,1.526-1.6c0.374-0.393,0.509-0.375,0.862,0.036
				c0.38,0.443,0.767,0.885,1.188,1.285c0.646,0.621,1.217,1.32,1.854,1.953c0.489,0.485,0.95,1.011,1.436,1.509
				c0.312,0.319,0.539,0.32,0.934,0.167c0.501-0.194,0.788-0.651,1.125-1.014c0.568-0.61,1.16-1.198,1.721-1.817
				c0.566-0.625,1.163-1.221,1.74-1.834c0.241-0.257,0.32-0.27,0.555-0.03c0.967,0.995,1.883,2.043,2.859,3.028
				c0.615,0.619,1.191,1.279,1.79,1.914c0.354,0.376,0.673,0.438,1.122,0.242c0.253-0.109,0.621-0.622,0.556-0.869
				C41.134,7.426,41.036,7.134,40.818,6.909z"/>
		</g>
	</g>
	<path fill="#3e96b4" d="M46.891,1.267C48.607,1.267,50,2.715,50,4.5c0,1.786-1.393,3.232-3.109,3.232
		c-1.716,0-3.109-1.446-3.109-3.232C43.781,2.715,45.174,1.267,46.891,1.267z"/>
</g>
</svg>
