<?xml version="1.0" encoding="UTF-8"?>
<svg id="Capa_1" xmlns="http://www.w3.org/2000/svg" version="1.1" viewBox="0 0 548.87 118.62">
  <!-- Generator: Adobe Illustrator 30.3.0, SVG Export Plug-In . SVG Version: 2.1.3 Build 182)  -->
  <defs>
    <style>
      .st0 {
        fill-rule: evenodd;
      }

      .st0, .st1 {
        fill: #fff;
      }

      .st2 {
        fill: none;
        stroke: #fff;
        stroke-miterlimit: 10;
        stroke-width: 1.32px;
      }
    </style>
  </defs>
  <g>
    <path class="st1" d="M110.96,101.83v4.55h-18.54v-26.71h18.21v4.55h-13.01v6.43h11.25v4.21h-11.25v6.96h13.35Z"/>
    <path class="st1" d="M121.76,106.76c-1.65,0-3.27-.26-4.85-.79-1.58-.53-2.93-1.28-4.06-2.26l1.88-3.16c1.2.85,2.38,1.5,3.52,1.94,1.14.44,2.28.66,3.4.66,1,0,1.79-.19,2.37-.56.58-.38.87-.92.87-1.62s-.34-1.22-1.02-1.54c-.68-.33-1.78-.7-3.31-1.13-1.28-.35-2.37-.69-3.27-1.02-.9-.33-1.63-.7-2.18-1.11-.55-.41-.95-.89-1.2-1.43-.25-.54-.38-1.18-.38-1.94,0-1,.19-1.91.58-2.71.39-.8.93-1.49,1.64-2.05.7-.56,1.52-1,2.46-1.3s1.96-.45,3.07-.45c1.48,0,2.86.21,4.16.64,1.29.43,2.48,1.12,3.55,2.07l-2.03,3.05c-1-.75-1.97-1.3-2.92-1.66-.94-.35-1.87-.53-2.8-.53-.85,0-1.57.18-2.14.53-.58.35-.87.92-.87,1.69,0,.35.07.64.21.87.14.23.36.43.66.6.3.18.7.34,1.18.51.49.16,1.1.33,1.82.51,1.35.35,2.51.7,3.48,1.05.97.35,1.75.75,2.37,1.2.61.45,1.07.97,1.35,1.56.29.59.43,1.3.43,2.13,0,1.93-.71,3.45-2.14,4.57-1.43,1.12-3.37,1.67-5.83,1.67Z"/>
    <path class="st1" d="M144.82,105.37c-.68.3-1.5.6-2.48.9-.98.3-2.01.45-3.08.45-.7,0-1.36-.09-1.97-.26-.61-.18-1.15-.46-1.62-.85-.46-.39-.83-.89-1.11-1.5-.28-.61-.41-1.36-.41-2.24v-11.32h-2.6v-3.87h2.6v-6.39h5.04v6.39h4.14v3.87h-4.14v9.63c0,.7.18,1.2.55,1.49.36.29.81.43,1.34.43s1.04-.09,1.54-.26c.5-.17.9-.33,1.2-.45l1.02,3.99Z"/>
    <path class="st1" d="M152.83,106.76c-.95,0-1.84-.16-2.67-.47-.83-.31-1.54-.75-2.14-1.32-.6-.56-1.07-1.22-1.41-1.97-.34-.75-.51-1.58-.51-2.48s.21-1.79.62-2.58c.41-.79.99-1.46,1.73-2.01.74-.55,1.62-.98,2.65-1.3,1.03-.31,2.16-.47,3.39-.47.88,0,1.74.08,2.58.23.84.15,1.59.36,2.24.64v-1.13c0-1.3-.37-2.31-1.11-3.01-.74-.7-1.84-1.05-3.29-1.05-1.05,0-2.08.19-3.08.56-1,.38-2.03.93-3.08,1.66l-1.54-3.2c2.53-1.68,5.27-2.52,8.2-2.52s5.03.7,6.6,2.09c1.57,1.39,2.35,3.4,2.35,6.04v6.13c0,.53.09.9.28,1.13.19.23.49.35.92.38v4.29c-.85.18-1.59.26-2.22.26-.95,0-1.69-.21-2.2-.64-.51-.43-.83-.99-.96-1.69l-.11-1.09c-.88,1.15-1.94,2.03-3.2,2.63-1.25.6-2.6.9-4.02.9ZM154.26,103.07c.85,0,1.66-.15,2.43-.45.76-.3,1.36-.7,1.79-1.2.55-.43.83-.9.83-1.43v-2.26c-.6-.23-1.25-.41-1.96-.55-.7-.14-1.38-.21-2.03-.21-1.3,0-2.37.3-3.2.88-.83.59-1.24,1.34-1.24,2.24,0,.85.33,1.56.98,2.13.65.56,1.45.85,2.41.85ZM156.7,84.38l-3.23-.98,2.03-4.48h4.7l-3.5,5.45Z"/>
    <path class="st1" d="M186.23,106.76c-1.35,0-2.61-.26-3.76-.79-1.15-.53-2.14-1.25-2.97-2.18-.83-.93-1.47-2.01-1.94-3.25-.46-1.24-.7-2.58-.7-4.01s.22-2.76.66-3.99c.44-1.23,1.05-2.31,1.82-3.23.78-.93,1.7-1.66,2.78-2.18,1.08-.53,2.26-.79,3.54-.79,1.45,0,2.76.35,3.93,1.05,1.17.7,2.07,1.62,2.73,2.75v-11.21h5.04v21.67c0,.53.09.9.26,1.13.18.23.48.35.9.38v4.29c-.88.18-1.59.26-2.14.26-.9,0-1.64-.23-2.22-.68-.58-.45-.9-1.04-.98-1.77l-.11-1.24c-.73,1.25-1.71,2.2-2.95,2.84-1.24.64-2.54.96-3.89.96ZM187.54,102.47c.48,0,.97-.08,1.47-.24.5-.16.97-.4,1.39-.7.43-.3.81-.65,1.15-1.05.34-.4.6-.84.77-1.32v-4.7c-.2-.55-.48-1.06-.85-1.52-.36-.46-.78-.87-1.24-1.2-.46-.34-.95-.61-1.47-.81-.51-.2-1.02-.3-1.52-.3-.75,0-1.45.16-2.09.49-.64.33-1.18.77-1.64,1.34-.45.56-.8,1.21-1.05,1.94-.25.73-.38,1.48-.38,2.26,0,.83.14,1.59.41,2.29.28.7.65,1.32,1.13,1.84.48.53,1.05.94,1.71,1.24.66.3,1.4.45,2.2.45Z"/>
    <path class="st1" d="M211.47,106.76c-1.58,0-3.01-.27-4.29-.81s-2.37-1.27-3.27-2.2c-.9-.93-1.6-2.01-2.09-3.23-.49-1.23-.73-2.52-.73-3.87s.24-2.73.71-3.97c.48-1.24,1.17-2.33,2.07-3.27.9-.94,2-1.69,3.29-2.24,1.29-.55,2.74-.83,4.34-.83s3.04.28,4.31.83c1.27.55,2.34,1.29,3.23,2.22.89.93,1.57,2.01,2.03,3.23.46,1.23.7,2.51.7,3.84,0,.33,0,.64-.02.94-.01.3-.04.55-.09.75h-15.23c.08.78.26,1.47.56,2.07s.69,1.12,1.17,1.54c.48.43,1.02.75,1.62.98.6.23,1.23.34,1.88.34,1,0,1.95-.24,2.84-.73.89-.49,1.5-1.13,1.82-1.94l4.33,1.2c-.73,1.5-1.89,2.74-3.48,3.71-1.59.97-3.49,1.45-5.7,1.45ZM216.58,94.87c-.13-1.48-.67-2.66-1.64-3.55-.97-.89-2.14-1.34-3.52-1.34-.68,0-1.31.12-1.9.36-.59.24-1.11.57-1.56,1-.45.43-.82.94-1.11,1.54-.29.6-.46,1.27-.51,1.99h10.23Z"/>
    <path class="st1" d="M232.76,92.84c0-1.63.29-3.24.88-4.83.59-1.59,1.45-3.01,2.58-4.27,1.13-1.25,2.51-2.27,4.14-3.05,1.63-.78,3.49-1.17,5.57-1.17,2.46,0,4.58.54,6.38,1.62,1.79,1.08,3.13,2.48,4.01,4.21l-3.99,2.75c-.35-.75-.78-1.39-1.28-1.9-.5-.51-1.04-.92-1.62-1.22-.58-.3-1.18-.52-1.81-.66-.63-.14-1.24-.21-1.84-.21-1.3,0-2.44.26-3.4.79-.97.53-1.77,1.21-2.41,2.05-.64.84-1.12,1.79-1.45,2.86-.33,1.07-.49,2.13-.49,3.18,0,1.18.19,2.31.56,3.4.38,1.09.91,2.05,1.6,2.88.69.83,1.52,1.49,2.48,1.99.97.5,2.02.75,3.18.75.6,0,1.23-.08,1.88-.23.65-.15,1.27-.39,1.86-.71.59-.33,1.13-.75,1.64-1.26.5-.51.9-1.13,1.2-1.86l4.25,2.45c-.43,1-1.03,1.89-1.82,2.65-.79.77-1.68,1.41-2.67,1.94-.99.53-2.05.93-3.18,1.2s-2.23.41-3.31.41c-1.91,0-3.65-.4-5.23-1.2-1.58-.8-2.94-1.85-4.08-3.14-1.14-1.29-2.03-2.76-2.67-4.4-.64-1.64-.96-3.32-.96-5.02Z"/>
    <path class="st1" d="M265.71,106.76c-2.03,0-3.57-.65-4.63-1.96-1.05-1.3-1.58-3.24-1.58-5.79v-12.34h5.04v11.25c0,3.03,1.09,4.55,3.27,4.55.98,0,1.92-.29,2.84-.88.92-.59,1.66-1.49,2.24-2.69v-12.23h5.04v13.92c0,.53.09.9.28,1.13s.49.35.92.38v4.29c-.5.1-.92.16-1.26.19-.34.02-.65.04-.92.04-.9,0-1.64-.21-2.2-.62-.56-.41-.9-.98-1-1.71l-.11-1.58c-.88,1.35-2.01,2.37-3.39,3.05-1.38.68-2.9,1.02-4.55,1.02Z"/>
    <path class="st1" d="M313.55,106.38h-5.04v-11.06c0-1.58-.27-2.73-.81-3.46-.54-.73-1.29-1.09-2.24-1.09-1,0-1.94.38-2.82,1.15-.88.77-1.5,1.76-1.88,2.99v11.47h-5.04v-11.06c0-1.58-.27-2.73-.81-3.46-.54-.73-1.29-1.09-2.24-1.09s-1.91.38-2.8,1.13c-.89.75-1.52,1.74-1.9,2.97v11.51h-5.04v-19.71h4.55v3.65c.73-1.28,1.72-2.26,2.99-2.95,1.27-.69,2.71-1.03,4.34-1.03s2.93.4,3.84,1.2c.9.8,1.48,1.79,1.73,2.97.8-1.35,1.82-2.39,3.05-3.1,1.23-.71,2.63-1.07,4.21-1.07,1.2,0,2.19.23,2.97.68.78.45,1.38,1.04,1.81,1.77.43.73.72,1.55.88,2.48.16.93.24,1.87.24,2.82v12.3Z"/>
    <path class="st1" d="M329.77,106.76c-1.56,0-2.91-.35-4.06-1.03-1.15-.69-2.06-1.62-2.71-2.8v11.47h-5.04v-27.72h4.4v3.39c.73-1.15,1.67-2.06,2.82-2.73,1.15-.66,2.48-1,3.99-1,1.33,0,2.56.27,3.69.81,1.13.54,2.1,1.27,2.92,2.18.81.92,1.45,1.99,1.92,3.23.46,1.24.7,2.55.7,3.93s-.21,2.77-.64,4.02c-.43,1.25-1.02,2.35-1.79,3.27-.77.93-1.67,1.66-2.73,2.18s-2.21.79-3.46.79ZM328.07,102.47c.75,0,1.45-.16,2.09-.49.64-.33,1.18-.76,1.64-1.32.45-.55.8-1.19,1.05-1.92.25-.73.38-1.48.38-2.26,0-.83-.14-1.6-.41-2.31-.28-.71-.66-1.34-1.15-1.86s-1.07-.94-1.73-1.24c-.66-.3-1.39-.45-2.16-.45-.48,0-.97.08-1.47.24-.5.16-.97.4-1.39.7-.43.3-.81.65-1.15,1.05-.34.4-.6.84-.77,1.32v4.63c.45,1.13,1.14,2.06,2.07,2.8.93.74,1.93,1.11,3.01,1.11Z"/>
    <path class="st1" d="M341.76,78.92h5.04v21.14c0,.73.17,1.29.53,1.69.35.4.85.6,1.5.6.3,0,.63-.05,1-.15.36-.1.71-.23,1.03-.38l.68,3.84c-.68.33-1.47.58-2.37.75-.9.18-1.72.26-2.44.26-1.58,0-2.8-.42-3.67-1.26-.86-.84-1.3-2.04-1.3-3.59v-22.91Z"/>
    <path class="st1" d="M362.87,106.76c-1.58,0-3.01-.27-4.29-.81s-2.37-1.27-3.27-2.2c-.9-.93-1.6-2.01-2.09-3.23-.49-1.23-.73-2.52-.73-3.87s.24-2.73.71-3.97c.48-1.24,1.17-2.33,2.07-3.27.9-.94,2-1.69,3.29-2.24,1.29-.55,2.74-.83,4.34-.83s3.04.28,4.31.83c1.27.55,2.34,1.29,3.23,2.22.89.93,1.57,2.01,2.03,3.23.46,1.23.7,2.51.7,3.84,0,.33,0,.64-.02.94-.01.3-.04.55-.09.75h-15.23c.08.78.26,1.47.56,2.07s.69,1.12,1.17,1.54c.48.43,1.02.75,1.62.98s1.23.34,1.88.34c1,0,1.95-.24,2.84-.73.89-.49,1.5-1.13,1.82-1.94l4.33,1.2c-.73,1.5-1.89,2.74-3.48,3.71-1.59.97-3.49,1.45-5.7,1.45ZM367.98,94.87c-.13-1.48-.67-2.66-1.64-3.55-.97-.89-2.14-1.34-3.52-1.34-.68,0-1.31.12-1.9.36-.59.24-1.11.57-1.56,1-.45.43-.82.94-1.11,1.54-.29.6-.46,1.27-.51,1.99h10.23Z"/>
  </g>
  <line class="st2" x1="401.27" y1="47.43" x2="401.27" y2="106.76"/>
  <g>
    <path class="st1" d="M488.13,99.36c-.17-.2-.38-.35-.61-.46-.23-.11-.49-.17-.76-.17s-.51.06-.75.17c-.23.12-.44.27-.61.47-.17.2-.31.43-.41.7-.1.27-.15.55-.15.86s.05.6.15.86c.1.26.23.49.41.68.17.19.38.35.61.46.23.11.49.17.76.17s.52-.06.76-.17c.23-.11.44-.27.61-.46.17-.2.31-.43.41-.69.1-.26.15-.55.15-.86s-.05-.59-.15-.86c-.1-.27-.23-.5-.41-.7Z"/>
    <path class="st1" d="M502.92,70.28c-.87-.45-1.99-.69-3.33-.69-1.08,0-2.04.2-2.86.59-.79.38-1.4.9-1.84,1.59-.44.68-.66,1.49-.66,2.47,0,1.42.46,2.51,1.42,3.33.98.85,2.37,1.28,4.13,1.28,1.18,0,2.21-.22,3.07-.64.85-.42,1.48-.97,1.94-1.69.46-.71.68-1.48.68-2.36,0-.78-.21-1.5-.63-2.19-.43-.69-1.06-1.25-1.92-1.7Z"/>
    <path class="st1" d="M472.01,100.97c-.49,0-.88.1-1.19.31-.31.21-.46.49-.46.83,0,.32.12.59.36.81.24.22.54.33.91.33.33,0,.64-.06.93-.18.29-.12.52-.29.68-.5.17-.15.26-.3.26-.47v-.85c-.23-.09-.47-.16-.73-.21-.26-.05-.51-.07-.76-.07Z"/>
    <path class="st1" d="M513.85,58.81c-1.97-1.87-5.02-2.04-7.09-.06-3.26,3.14-8.19,3.18-11.41.08-2.09-2.01-5.17-1.98-7.26.03-3.16,3.03-8.07,3.03-11.23,0-2.09-2.01-5.18-2.03-7.26-.03-3.28,3.16-8.25,3.01-11.48-.13-1.98-1.92-5.07-1.76-7.02.1-2.35,2.29-5.66,2.94-8.81,1.71v49.17s80.35,0,80.35,0v-49.18c-3.1,1.25-6.44.59-8.79-1.7ZM465,93.62h-4.7v-23.68h-6.14v-4.4h10.84v28.09ZM481.86,70.85c-.84-.71-2.15-1.07-3.91-1.07-1.4,0-2.65.21-3.7.64-1.02.41-1.91,1.05-2.64,1.91l-.66.77-3.43-2.96.65-.76c1.12-1.31,2.56-2.33,4.3-3.04,1.7-.69,3.62-1.04,5.71-1.04,1.89,0,3.57.31,4.98.92,1.47.64,2.62,1.58,3.44,2.81.82,1.23,1.23,2.68,1.23,4.32,0,.93-.13,1.87-.39,2.77-.26.92-.73,1.88-1.4,2.87-.64.96-1.58,2.05-2.8,3.23l-7.12,6.98h12.89v4.4h-20.3v-3.33l11.14-10.91c.94-.92,1.65-1.72,2.11-2.4.43-.64.72-1.23.87-1.76.15-.56.23-1.08.23-1.56,0-1.21-.39-2.13-1.19-2.8ZM481.68,95.13s-.02.15-.07.31c-.05.16-.12.32-.23.48-.11.16-.25.31-.43.44-.18.13-.41.19-.68.19-.19,0-.35-.03-.49-.08-.14-.05-.27-.12-.39-.18-.12-.07-.24-.13-.35-.19-.12-.05-.24-.08-.37-.08-.14,0-.25.03-.33.09-.08.06-.14.12-.18.19-.04.07-.07.14-.08.2-.01.07-.02.1-.02.11h-.76c0-.07.02-.18.06-.33.04-.16.11-.31.22-.48.1-.16.24-.3.41-.43.17-.12.38-.19.64-.19.18,0,.34.03.47.09.14.06.26.12.38.18.12.07.24.13.36.19.12.06.25.09.4.09s.27-.03.36-.09c.09-.06.16-.12.2-.2.04-.07.07-.14.09-.2s.02-.1.02-.12h.78ZM475.22,104.13c-.13.02-.24.04-.34.05-.09,0-.19.01-.28.01-.26,0-.47-.07-.61-.2-.14-.13-.23-.3-.27-.51l-.04-.41c-.29.38-.64.67-1.07.87s-.88.3-1.36.3c-.31,0-.6-.05-.87-.15-.27-.1-.5-.24-.69-.43-.19-.18-.35-.39-.46-.64-.11-.25-.17-.51-.17-.8,0-.3.07-.58.2-.83.13-.25.32-.46.56-.64.24-.18.53-.32.86-.42s.7-.15,1.1-.15c.3,0,.6.03.9.08.3.05.56.13.8.22v-.44c0-.48-.14-.85-.41-1.12-.27-.27-.66-.4-1.17-.4-.35,0-.68.06-1.02.19-.33.13-.68.31-1.03.55l-.42-.86c.83-.56,1.69-.84,2.59-.84s1.58.23,2.07.68c.49.45.74,1.1.74,1.95v2.33c0,.29.12.44.36.44v1.16ZM482.29,104.13h-1.36v-3.61c0-.61-.1-1.05-.29-1.33-.19-.28-.48-.41-.86-.41-.2,0-.39.04-.59.11-.2.07-.38.18-.55.31-.17.14-.33.3-.46.48-.14.18-.24.39-.31.61v3.84h-1.36v-6.45h1.23v1.3c.25-.44.6-.78,1.07-1.03s.99-.38,1.55-.38c.39,0,.7.07.95.21.25.14.44.33.59.57.14.24.24.52.3.84.06.32.09.65.09,1.01v3.93ZM489.85,102.19c-.16.41-.38.76-.67,1.07-.29.3-.64.55-1.05.73-.41.18-.86.27-1.36.27s-.97-.09-1.38-.27c-.41-.18-.75-.42-1.04-.73-.29-.3-.51-.66-.67-1.07-.16-.41-.23-.83-.23-1.28s.08-.87.23-1.28c.16-.41.38-.76.67-1.07.29-.3.64-.55,1.05-.73s.86-.27,1.36-.27.96.09,1.36.27.76.42,1.05.73c.29.3.52.66.67,1.07.16.41.23.83.23,1.28s-.08.87-.23,1.28ZM495.53,103.72c-.46.36-1.1.54-1.89.54-.52,0-1.03-.08-1.55-.25s-.96-.41-1.33-.72l.54-.86c.39.28.77.49,1.15.64.38.14.76.22,1.16.22s.72-.08.96-.23c.23-.16.35-.38.35-.67,0-.27-.13-.47-.39-.59-.26-.12-.67-.26-1.23-.41-.4-.11-.75-.21-1.04-.31-.29-.1-.52-.21-.7-.35-.18-.13-.31-.28-.39-.46-.08-.17-.12-.38-.12-.63,0-.33.06-.62.19-.88.13-.25.3-.47.53-.65s.49-.31.8-.4c.3-.09.63-.14.99-.14.49,0,.94.07,1.36.22.42.15.79.36,1.12.64l-.58.81c-.6-.48-1.24-.72-1.91-.72-.35,0-.64.07-.87.22-.23.14-.35.37-.35.68,0,.13.02.24.07.33.05.09.13.17.24.23.11.07.25.13.43.18.18.05.4.11.66.18.44.11.81.21,1.13.32.32.11.58.23.78.38.21.14.36.31.46.51.1.19.15.43.15.7,0,.62-.23,1.1-.7,1.46ZM509.56,87.21c-1.09,2.18-2.64,3.86-4.59,4.97-1.93,1.1-4.19,1.66-6.72,1.66-1.23,0-2.42-.12-3.54-.36-1.16-.25-2.22-.65-3.15-1.2l-.81-.48,2.01-4.03.95.63c.56.37,1.22.64,1.98.8.81.17,1.66.26,2.53.26,2.54,0,4.49-.77,5.99-2.36,1.35-1.44,2.1-3.61,2.22-6.45-.79.72-1.71,1.3-2.75,1.71-1.29.52-2.74.78-4.3.78-1.86,0-3.54-.36-5-1.07-1.49-.72-2.68-1.76-3.52-3.08-.85-1.33-1.28-2.9-1.28-4.68s.44-3.44,1.32-4.79c.87-1.34,2.08-2.4,3.59-3.13,1.49-.72,3.17-1.09,5-1.09,2.5,0,4.65.57,6.4,1.71,1.75,1.14,3.1,2.79,3.99,4.9.87,2.05,1.31,4.55,1.31,7.43,0,3.07-.54,5.72-1.61,7.86Z"/>
  </g>
  <g>
    <path class="st1" d="M465.54,28.76c1.44,1.25,3.56,1.31,5.05.17,1.49-1.14,2.14-3.28,1.15-5.01l-3.57-6.23-3.5,6.07c-.97,1.68-.53,3.78.87,5Z"/>
    <path class="st1" d="M493.76,28.76c1.44,1.25,3.56,1.31,5.05.17,1.49-1.14,2.14-3.28,1.15-5.01l-3.57-6.23-3.5,6.07c-.97,1.68-.53,3.78.87,5Z"/>
    <path class="st1" d="M479.65,25.24c1.44,1.25,3.56,1.31,5.05.17,1.49-1.14,2.14-3.28,1.15-5.01l-3.57-6.23-3.5,6.07c-.97,1.68-.53,3.78.87,5Z"/>
    <path class="st1" d="M522.66,48.17s0,0,0,0v-.08c0-.15,0-.29-.03-.43-.26-2.89-2.68-5.15-5.64-5.15h-17.58v-10.94h-6.04v10.94h-8.07v-14.46h-6.04v14.46h-8.07v-10.94h-6.04v10.94h-17.21c-2.78,0-5.09,2.01-5.57,4.66-.07.22-.1.45-.1.71l.02,9.18c2.03,1.47,4.72,1.46,6.54-.29,3.2-3.08,8.11-3.33,11.42-.17,1.93,1.84,5.04,2.19,7.08.2,3.15-3.09,8.14-3.36,11.4-.24,2.18,2.09,5.27,2.1,7.53-.05,3.22-3.07,8.15-2.79,11.2.19,2.08,2.04,5.19,1.81,7.21-.12,3.23-3.08,8.13-2.95,11.29.09,1.86,1.78,4.57,1.91,6.66.37v-5.07h.02v-3.8Z"/>
  </g>
  <path class="st1" d="M419.75,46.24c-.19.38-.65.44-1.02.4l-1.74-.89c-.4-.21-.48-.62-.41-1.06l.89-1.74c.17-.33.68-.54,1.02-.37l1.82.91c.26.13.48.64.35.91l-.91,1.84Z"/>
  <path class="st1" d="M454.34,9.04c-.06.18-.28.25-.38.25s-.31-.08-.36-.22l-1.02-2.83-2.48-1.19c-.19-.09-.29-.26-.29-.43,0-.15.1-.35.28-.43l2.46-1.09,1.11-3c.05-.14.56-.13.63,0l1.09,3,2.3,1.01c.25.11.43.27.43.5,0,.33-.22.43-.49.56l-2.27,1.06-1,2.81Z"/>
  <path class="st1" d="M438.25,11.76c-.37.2-.78-.02-1.06-.28l-.89-1.74c-.21-.4-.02-.78.29-1.1l1.74-.89c.33-.17.87-.04,1.04.29l.94,1.8c.13.25.02.81-.25.95l-1.81.97Z"/>
  <path class="st1" d="M424.53,24.59c-.06.18-.28.25-.38.25s-.31-.08-.36-.22l-1.02-2.83-2.48-1.19c-.19-.09-.29-.26-.29-.43,0-.15.1-.35.28-.43l2.46-1.09,1.11-3c.05-.14.56-.13.63,0l1.09,3,2.3,1.01c.25.11.43.27.43.5,0,.33-.22.43-.49.56l-2.27,1.06-1,2.81Z"/>
  <path class="st1" d="M429.07,59.42c-.06.18-.28.25-.38.25s-.31-.08-.36-.22l-1.02-2.83-2.48-1.19c-.19-.09-.29-.26-.29-.43,0-.15.1-.35.28-.43l2.46-1.09,1.11-3c.05-.14.56-.13.63,0l1.09,3,2.3,1.01c.25.11.43.27.43.5,0,.33-.22.43-.49.56l-2.27,1.06-1,2.81Z"/>
  <path class="st1" d="M444.66,35.79c-.59,0-1.12-.41-1.24-1.01-1.3-6.17-7.46-8.6-7.52-8.63-.66-.25-.98-.99-.73-1.64.25-.66.98-.99,1.64-.74.31.12,7.52,2.93,9.11,10.48.15.69-.3,1.36-.98,1.51-.09.02-.18.03-.26.03Z"/>
  <path class="st1" d="M452.91,32.19s-.07,0-.11,0c-.7-.06-1.22-.68-1.16-1.38,1.07-12.19-7.8-16.5-8.18-16.67-.64-.3-.91-1.05-.62-1.69s1.05-.91,1.69-.62c.11.05,2.81,1.32,5.33,4.32,2.32,2.76,4.95,7.58,4.31,14.88-.06.66-.61,1.16-1.27,1.16Z"/>
  <path class="st1" d="M424.15,42.81c-.36,0-.72-.15-.97-.45-.45-.53-.39-1.33.14-1.79.07-.06,7.35-6.14,15.68-.78.59.38.76,1.17.38,1.76-.38.59-1.17.76-1.76.38-6.71-4.32-12.41.37-12.65.57-.24.2-.53.3-.82.3Z"/>
  <path class="st1" d="M545.68,46.24c.19.38.65.44,1.02.4l1.74-.89c.4-.21.48-.62.41-1.06l-.89-1.74c-.17-.33-.68-.54-1.02-.37l-1.82.91c-.26.13-.48.64-.35.91l.91,1.84Z"/>
  <path class="st1" d="M511.08,9.04c.06.18.28.25.38.25s.31-.08.36-.22l1.02-2.83,2.48-1.19c.19-.09.29-.26.29-.43,0-.15-.1-.35-.28-.43l-2.46-1.09-1.11-3c-.05-.14-.56-.13-.63,0l-1.09,3-2.3,1.01c-.25.11-.43.27-.43.5,0,.33.22.43.49.56l2.27,1.06,1,2.81Z"/>
  <path class="st1" d="M527.17,11.76c.37.2.78-.02,1.06-.28l.89-1.74c.21-.4.02-.78-.29-1.1l-1.74-.89c-.33-.17-.87-.04-1.04.29l-.94,1.8c-.13.25-.02.81.25.95l1.81.97Z"/>
  <path class="st1" d="M540.9,24.59c.06.18.28.25.38.25s.31-.08.36-.22l1.02-2.83,2.48-1.19c.19-.09.29-.26.29-.43,0-.15-.1-.35-.28-.43l-2.46-1.09-1.11-3c-.05-.14-.56-.13-.63,0l-1.09,3-2.3,1.01c-.25.11-.43.27-.43.5,0,.33.22.43.49.56l2.27,1.06,1,2.81Z"/>
  <path class="st1" d="M536.36,59.42c.06.18.28.25.38.25s.31-.08.36-.22l1.02-2.83,2.48-1.19c.19-.09.29-.26.29-.43,0-.15-.1-.35-.28-.43l-2.46-1.09-1.11-3c-.05-.14-.56-.13-.63,0l-1.09,3-2.3,1.01c-.25.11-.43.27-.43.5,0,.33.22.43.49.56l2.27,1.06,1,2.81Z"/>
  <path class="st1" d="M520.76,35.79c-.09,0-.18,0-.26-.03-.69-.15-1.13-.82-.98-1.51,1.59-7.55,8.8-10.37,9.11-10.48.66-.25,1.39.08,1.64.74.25.66-.08,1.39-.74,1.64-.08.03-6.22,2.47-7.52,8.63-.13.6-.66,1.01-1.24,1.01Z"/>
  <path class="st1" d="M512.52,32.19c-.65,0-1.21-.5-1.27-1.16-.64-7.3,1.99-12.12,4.31-14.88,2.53-3.01,5.22-4.27,5.33-4.32.64-.29,1.4-.02,1.69.62.29.64.02,1.39-.62,1.69-.38.18-9.25,4.49-8.18,16.67.06.7-.46,1.32-1.16,1.38-.04,0-.08,0-.11,0Z"/>
  <path class="st1" d="M541.28,42.81c-.29,0-.58-.1-.82-.3-.24-.21-5.94-4.89-12.65-.57-.59.38-1.38.21-1.76-.38-.38-.59-.21-1.38.38-1.76,8.33-5.36,15.61.71,15.68.78.53.46.6,1.26.14,1.8-.25.29-.61.45-.97.45Z"/>
  <g>
    <path class="st1" d="M92.42,74.11v-35.41h15.11c1.7,0,3.25.35,4.66,1.05,1.41.7,2.63,1.61,3.64,2.74,1.01,1.13,1.81,2.41,2.39,3.84.58,1.43.87,2.88.87,4.34,0,1.56-.27,3.06-.82,4.49-.55,1.43-1.31,2.71-2.29,3.84-.98,1.13-2.17,2.03-3.57,2.69-1.4.67-2.94,1-4.64,1h-7.18v11.42h-8.18ZM100.6,55.56h6.68c.96,0,1.8-.42,2.49-1.25.7-.83,1.05-2.04,1.05-3.64,0-.83-.11-1.55-.32-2.14-.22-.6-.51-1.1-.87-1.5-.37-.4-.78-.69-1.25-.87-.47-.18-.93-.27-1.4-.27h-6.38v9.68Z"/>
    <path class="st1" d="M139.45,54.76c-1.93.03-3.67.35-5.24.95-1.56.6-2.69,1.5-3.39,2.69v15.71h-7.98v-26.18h7.33v5.29c.9-1.76,2.05-3.14,3.47-4.14,1.41-1,2.92-1.51,4.51-1.55h.8c.17,0,.33.02.5.05v7.18Z"/>
    <path class="st1" d="M153.96,74.61c-2.23,0-4.21-.37-5.96-1.1-1.75-.73-3.22-1.72-4.41-2.97-1.2-1.25-2.1-2.69-2.72-4.34-.62-1.65-.92-3.37-.92-5.16s.31-3.52.92-5.16c.61-1.65,1.52-3.09,2.72-4.34,1.2-1.25,2.67-2.24,4.41-2.99,1.75-.75,3.73-1.12,5.96-1.12s4.21.37,5.93,1.12c1.73.75,3.19,1.75,4.39,2.99,1.2,1.25,2.11,2.69,2.74,4.34.63,1.65.95,3.37.95,5.16s-.31,3.52-.92,5.16c-.62,1.65-1.52,3.09-2.72,4.34-1.2,1.25-2.67,2.24-4.41,2.97-1.75.73-3.73,1.1-5.96,1.1ZM148.12,61.04c0,2.06.55,3.72,1.65,4.96,1.1,1.25,2.49,1.87,4.19,1.87.83,0,1.6-.17,2.29-.5.7-.33,1.3-.8,1.82-1.4.51-.6.92-1.32,1.22-2.17.3-.85.45-1.77.45-2.77,0-2.06-.55-3.72-1.65-4.96-1.1-1.25-2.48-1.87-4.14-1.87-.83,0-1.6.17-2.32.5-.72.33-1.33.8-1.85,1.4-.52.6-.92,1.32-1.22,2.17s-.45,1.77-.45,2.77Z"/>
    <path class="st1" d="M177.75,74.11l-9.28-26.18h8.23l5.74,19.8,5.79-19.8h7.43l-9.23,26.18h-8.68Z"/>
    <path class="st1" d="M198.69,44.94v-7.23h7.98v7.23h-7.98ZM198.69,74.11v-26.18h7.98v26.18h-7.98Z"/>
    <path class="st1" d="M223.03,74.61c-1.8,0-3.45-.34-4.96-1.02-1.51-.68-2.82-1.64-3.91-2.87-1.1-1.23-1.95-2.67-2.57-4.31-.62-1.65-.92-3.45-.92-5.41s.28-3.67.85-5.34c.56-1.66,1.36-3.1,2.39-4.31,1.03-1.21,2.25-2.17,3.67-2.87,1.41-.7,2.97-1.05,4.66-1.05,1.83,0,3.48.43,4.96,1.3,1.48.86,2.62,2.03,3.42,3.49v-14.51h7.98v27.43c0,.8.12,1.36.37,1.67.25.32.69.51,1.32.57v6.73c-.73.17-1.36.27-1.9.32-.53.05-1.03.07-1.5.07-1.4,0-2.53-.29-3.39-.87-.86-.58-1.36-1.42-1.5-2.52l-.15-1.35c-.93,1.63-2.19,2.84-3.76,3.64-1.58.8-3.27,1.2-5.06,1.2ZM225.17,67.88c1.1,0,2.15-.32,3.17-.97,1.01-.65,1.79-1.54,2.32-2.67v-5.49c-.5-1.33-1.31-2.42-2.42-3.27-1.11-.85-2.27-1.27-3.47-1.27-.86,0-1.65.19-2.37.57-.72.38-1.34.89-1.87,1.52-.53.63-.94,1.36-1.22,2.19-.28.83-.42,1.71-.42,2.64s.16,1.86.47,2.69c.32.83.75,1.55,1.3,2.14s1.21,1.06,1.99,1.4c.78.33,1.62.5,2.52.5Z"/>
    <path class="st1" d="M257.29,74.61c-2.19,0-4.16-.36-5.91-1.07-1.75-.71-3.23-1.69-4.44-2.92-1.21-1.23-2.14-2.65-2.77-4.26-.63-1.61-.95-3.3-.95-5.06,0-1.9.32-3.68.95-5.36.63-1.68,1.55-3.15,2.74-4.41,1.2-1.26,2.67-2.26,4.41-2.99,1.75-.73,3.73-1.1,5.96-1.1s4.21.37,5.93,1.1c1.73.73,3.19,1.72,4.39,2.97,1.2,1.25,2.1,2.69,2.72,4.31.61,1.63.92,3.34.92,5.14,0,.47-.02.92-.05,1.37-.03.45-.08.84-.15,1.17h-19.35c.13,1.76.77,3.1,1.92,4.01,1.15.91,2.45,1.37,3.92,1.37,1.16,0,2.29-.28,3.37-.85,1.08-.56,1.8-1.33,2.17-2.29l6.78,1.9c-1.03,2.06-2.63,3.74-4.79,5.04-2.16,1.3-4.75,1.95-7.78,1.95ZM262.83,58.55c-.17-1.66-.77-2.98-1.8-3.94-1.03-.96-2.31-1.45-3.84-1.45s-2.85.49-3.87,1.47c-1.01.98-1.6,2.29-1.77,3.91h11.27Z"/>
    <path class="st1" d="M300.13,74.11h-7.98v-14.71c0-1.73-.32-2.98-.97-3.77-.65-.78-1.51-1.17-2.57-1.17-.57,0-1.13.12-1.7.35-.57.23-1.11.56-1.65.97-.53.42-1.01.91-1.42,1.47-.42.57-.74,1.18-.97,1.85v15.01h-7.98v-26.18h7.18v4.39c.96-1.56,2.33-2.77,4.09-3.62,1.76-.85,3.79-1.27,6.08-1.27,1.7,0,3.06.31,4.09.92,1.03.62,1.83,1.41,2.39,2.39.57.98.94,2.05,1.12,3.22.18,1.16.27,2.29.27,3.39v16.76Z"/>
    <path class="st1" d="M303.87,61c0-1.8.32-3.52.95-5.16.63-1.65,1.55-3.09,2.74-4.34,1.2-1.25,2.67-2.24,4.41-2.97,1.75-.73,3.73-1.1,5.96-1.1,3.03,0,5.57.64,7.63,1.92,2.06,1.28,3.61,2.95,4.64,5.01l-7.78,2.34c-1.03-1.66-2.54-2.49-4.54-2.49-1.66,0-3.05.62-4.16,1.85-1.11,1.23-1.67,2.88-1.67,4.94,0,1.03.15,1.97.45,2.82.3.85.71,1.57,1.25,2.17.53.6,1.15,1.06,1.87,1.4.71.33,1.47.5,2.27.5,1,0,1.91-.24,2.74-.72.83-.48,1.45-1.11,1.85-1.87l7.78,2.39c-.96,2.03-2.5,3.69-4.61,4.99-2.11,1.3-4.68,1.95-7.7,1.95-2.19,0-4.16-.37-5.91-1.12-1.75-.75-3.23-1.75-4.44-2.99-1.21-1.25-2.14-2.69-2.77-4.34-.63-1.65-.95-3.37-.95-5.16Z"/>
    <path class="st1" d="M333.84,44.94v-7.23h7.98v7.23h-7.98ZM333.84,74.11v-26.18h7.98v26.18h-7.98Z"/>
    <path class="st1" d="M354.74,74.61c-1.3,0-2.5-.21-3.62-.62-1.11-.42-2.07-1-2.87-1.75-.8-.75-1.43-1.63-1.9-2.64-.47-1.01-.7-2.12-.7-3.32,0-1.3.27-2.48.82-3.54.55-1.06,1.32-1.98,2.32-2.74,1-.76,2.18-1.36,3.54-1.8,1.36-.43,2.88-.65,4.54-.65,1.1,0,2.16.09,3.19.27,1.03.18,1.93.46,2.69.82v-1.2c0-3.02-1.75-4.54-5.24-4.54-1.43,0-2.79.24-4.09.72-1.3.48-2.66,1.21-4.09,2.17l-2.34-4.99c1.73-1.13,3.52-1.98,5.39-2.54,1.86-.56,3.84-.85,5.93-.85,3.96,0,7.02.93,9.18,2.79,2.16,1.86,3.24,4.59,3.24,8.18v6.73c0,.8.12,1.36.37,1.67.25.32.69.51,1.32.57v6.73c-.7.17-1.33.27-1.9.32-.57.05-1.08.07-1.55.07-1.5,0-2.63-.29-3.39-.87s-1.25-1.4-1.45-2.47l-.15-1.2c-1.16,1.5-2.55,2.64-4.16,3.44-1.61.8-3.32,1.2-5.11,1.2ZM357.08,68.87c.86,0,1.7-.15,2.52-.45.81-.3,1.49-.7,2.02-1.2.76-.6,1.15-1.23,1.15-1.9v-2.49c-.7-.27-1.46-.47-2.27-.62-.82-.15-1.57-.22-2.27-.22-1.46,0-2.67.33-3.62,1-.95.67-1.42,1.53-1.42,2.59,0,.96.37,1.75,1.1,2.37.73.62,1.66.92,2.79.92Z"/>
    <path class="st1" d="M28.82,110.52c3.86,1.85,10.84,1.76,14.5-.02,3.68-1.78,8.99-1.62,12.33,0,1.33.64,3.09,1.03,4.94,1.17,1.64-1.05,3.09-2.15,4.36-3.24-3.2.48-6.94.13-9.31-1.02-3.34-1.62-8.65-1.79-12.33,0-3.68,1.79-10.7,1.87-14.55,0-3.86-1.85-10.84-1.76-14.51.02-1.56.76-3.42,1.16-5.3,1.25,1.03.86,2.17,1.72,3.42,2.56.66-.2,1.29-.43,1.89-.72,3.68-1.79,10.7-1.87,14.55,0Z"/>
    <path class="st1" d="M55.64,114.06c-3.34-1.62-8.65-1.78-12.33,0-3.68,1.78-10.7,1.87-14.55,0-3.31-1.58-8.9-1.74-12.75-.64,5.31,2.82,12.16,5,20.8,5.2,7.8-.18,14.14-1.98,19.2-4.4-.13-.05-.26-.11-.38-.16Z"/>
    <path class="st1" d="M73.47,75.45c-4.16-1.52-14.71-5.4-27.45-12.56-1.65-.92-3.28-1.81-4.88-2.64l.24,3.12h-9.95l.59-7.58C16.04,48.5,3.84,45.73,0,44.97v37.24h29.57l.42-1.55.03-5.21c1.14-1.05,1.76-2.3,2.09-3.32h8.6c.33,1.02.95,2.27,2.08,3.32v5.25l.41,1.56h30.14l.13-6.81ZM41.27,65.65l-.11.3s-.87,2.17-.86,3.9h-7.78c.01-1.72-.86-3.9-.86-3.9l-.06-.3h9.68Z"/>
    <path class="st1" d="M32.87,44.78l.05-.63c-4.06,1.7-7.56,3.23-9.85,4.24,3.17,1.18,6.12,2.38,9.22,3.8l.58-7.4Z"/>
    <path class="st1" d="M1.52,99.49c.83,1.96,1.98,3.75,3.39,5.3.06.07.13.14.19.21,2.99.53,6.48.18,9.16-1.12,3.68-1.78,10.7-1.87,14.55,0,3.86,1.85,10.84,1.76,14.5-.02,3.68-1.78,8.99-1.62,12.33,0,3.34,1.62,9.42,1.66,12.84,0,.46-.22.93-.41,1.43-.57.86-1.17,1.59-2.45,2.17-3.81H1.52Z"/>
    <path class="st1" d="M18.38,46.63c1.56-.7,7.54-3.36,14.83-6.39l.59-8.12,2.46-2.54.17-.17.15.17,2.46,2.54.4,5.57c10.37-4.17,21.52-8.21,25.92-8.28,4.17-.07,6.72.56,8.26,1.26V6.37c0-.9-.72-1.63-1.62-1.63l-9.42-.08c-.91,0-1.65.73-1.65,1.63v5.38c0,.89-.72,1.62-1.61,1.63l-4.91.07c-.91.01-1.66-.72-1.66-1.63v-5.41c0-.9-.73-1.63-1.63-1.63h-9.39c-.9,0-1.63.73-1.63,1.63v5.32c0,.9-.73,1.63-1.63,1.63h-4.09c-.9,0-1.63-.73-1.63-1.63v-5.37c0-.9-.73-1.63-1.63-1.63h-9.31c-.9,0-1.63.73-1.63,1.63v5.03c0,.9-.73,1.63-1.63,1.63h-4.28c-.9,0-1.63-.73-1.63-1.63v-4.92c0-.9-.73-1.63-1.63-1.63H1.63c-.9,0-1.63.73-1.63,1.63v35c2.55.5,9.19,1.96,18.38,5.24Z"/>
    <path class="st1" d="M65.55,33.15c-4.61.1-15.76,4.15-25.85,8.21l.25,3.42.91,11.65c1.65.88,3.41,1.84,5.29,2.9,13.71,7.7,23.92,11.61,27.47,12.86v-37.42c-1.59-.9-4.12-1.7-8.06-1.62Z"/>
    <path class="st0" d="M73.54,85.23v9.3l-.27,1.42h-7.91c-1.29-4.13-5.16-7.16-9.7-7.16s-8.42,3.02-9.7,7.16h-18.25c-1.29-4.13-5.16-7.16-9.7-7.16s-8.42,3.02-9.7,7.16H.33l-.27-1.48v-9.24h73.48Z"/>
    <path class="st0" d="M11.95,96.1c.8-2.56,3.2-4.43,6.01-4.43s5.21,1.87,6.01,4.43h-12.02Z"/>
    <path class="st0" d="M49.68,96.1c.8-2.56,3.2-4.43,6.01-4.43s5.21,1.87,6.01,4.43h-12.02Z"/>
  </g>
</svg>