<?xml version="1.0" encoding="utf-8"?>
<!-- Generator: Adobe Illustrator 16.0.4, SVG Export Plug-In . SVG Version: 6.00 Build 0)  -->
<!DOCTYPE svg PUBLIC "-//W3C//DTD SVG 1.1//EN" "http://www.w3.org/Graphics/SVG/1.1/DTD/svg11.dtd">
<svg version="1.1" id="Capa_1" xmlns="http://www.w3.org/2000/svg" xmlns:xlink="http://www.w3.org/1999/xlink" x="0px" y="0px"
	 width="28px" height="31.458px" viewBox="0 0 28 31.458" enable-background="new 0 0 28 31.458" xml:space="preserve">
<g>
	<polygon fill="#222222" points="11.406,14.79 11.406,11.419 8.832,14.79 	"/>
	<polygon fill="#222222" points="23.807,14.79 23.807,11.419 21.233,14.79 	"/>
	<path fill="#222222" d="M14.52,0.363L0.256,4.667v13.067c0,2.506,1.258,4.824,3.93,7.31c1.882,1.726,6.342,3.337,8.639,4.897
		l1.238,0.84l0.457,0.312l0.458-0.312l1.236-0.84c2.297-1.561,5.718-3.172,7.601-4.897c2.691-2.476,3.93-4.804,3.93-7.31V4.667
		L14.52,0.363z M6.879,19.465H2.128v-1.232h1.766v-7.372c-0.074,0.1-0.19,0.202-0.349,0.311c-0.156,0.108-0.33,0.208-0.521,0.299
		s-0.39,0.168-0.598,0.23c-0.207,0.062-0.389,0.093-0.547,0.093v-1.281c0.166,0,0.359-0.049,0.578-0.148
		c0.22-0.1,0.432-0.217,0.635-0.35c0.203-0.132,0.381-0.266,0.535-0.397C3.779,9.484,3.869,9.389,3.894,9.33h1.405v8.903h1.58
		V19.465z M13.72,16.036h-1.095v3.443h-1.367v-3.443H7.439v-1.221l4.253-5.485h0.933v5.46h1.095V16.036z M19.279,19.465h-4.751
		v-1.232h1.767v-7.372c-0.075,0.1-0.191,0.202-0.349,0.311s-0.332,0.208-0.522,0.299s-0.39,0.168-0.597,0.23
		c-0.208,0.062-0.39,0.093-0.548,0.093v-1.281c0.166,0,0.359-0.049,0.578-0.148c0.22-0.1,0.432-0.217,0.635-0.35
		c0.203-0.132,0.381-0.266,0.535-0.397c0.153-0.133,0.242-0.228,0.268-0.287h1.404v8.903h1.58V19.465z M26.121,16.036h-1.095v3.443
		h-1.368v-3.443h-3.819v-1.221l4.254-5.485h0.934v5.46h1.095V16.036z"/>
</g>
</svg>
